<mxfile host="app.diagrams.net" agent="Mozilla/5.0 (Windows NT 10.0; Win64; x64) AppleWebKit/537.36 (KHTML, like Gecko) Chrome/128.0.0.0 Safari/537.36" version="24.7.12">
  <diagram name="Page-1" id="wzQisklRTnR3frjO-d6A">
    <mxGraphModel dx="979" dy="532" grid="1" gridSize="10" guides="1" tooltips="1" connect="1" arrows="1" fold="1" page="1" pageScale="1" pageWidth="2336" pageHeight="1654" math="0" shadow="0">
      <root>
        <mxCell id="0" />
        <mxCell id="1" parent="0" />
        <mxCell id="0WxTXpoMYCU4AEhBPaFq-1" style="edgeStyle=orthogonalEdgeStyle;rounded=0;orthogonalLoop=1;jettySize=auto;html=1;exitX=1;exitY=1;exitDx=0;exitDy=0;entryX=0.5;entryY=0;entryDx=0;entryDy=0;" parent="1" source="0WxTXpoMYCU4AEhBPaFq-3" target="0WxTXpoMYCU4AEhBPaFq-8" edge="1">
          <mxGeometry relative="1" as="geometry" />
        </mxCell>
        <mxCell id="0WxTXpoMYCU4AEhBPaFq-2" value="~RX_IN/{7&#39;d1100000}" style="edgeLabel;html=1;align=center;verticalAlign=middle;resizable=0;points=[];" parent="0WxTXpoMYCU4AEhBPaFq-1" vertex="1" connectable="0">
          <mxGeometry x="-0.4502" y="-1" relative="1" as="geometry">
            <mxPoint x="29" as="offset" />
          </mxGeometry>
        </mxCell>
        <mxCell id="0WxTXpoMYCU4AEhBPaFq-3" value="IDLE" style="ellipse;whiteSpace=wrap;html=1;" parent="1" vertex="1">
          <mxGeometry x="1506.86" y="922" width="120" height="80" as="geometry" />
        </mxCell>
        <mxCell id="0WxTXpoMYCU4AEhBPaFq-4" style="edgeStyle=orthogonalEdgeStyle;rounded=0;orthogonalLoop=1;jettySize=auto;html=1;exitX=1;exitY=0.5;exitDx=0;exitDy=0;entryX=0.5;entryY=0;entryDx=0;entryDy=0;jumpStyle=arc;" parent="1" source="0WxTXpoMYCU4AEhBPaFq-3" target="0WxTXpoMYCU4AEhBPaFq-3" edge="1">
          <mxGeometry relative="1" as="geometry">
            <Array as="points">
              <mxPoint x="1786.86" y="962" />
              <mxPoint x="1786.86" y="882" />
              <mxPoint x="1566.86" y="882" />
            </Array>
          </mxGeometry>
        </mxCell>
        <mxCell id="0WxTXpoMYCU4AEhBPaFq-5" value="*/{7&#39;d0}" style="edgeLabel;html=1;align=center;verticalAlign=middle;resizable=0;points=[];" parent="0WxTXpoMYCU4AEhBPaFq-4" vertex="1" connectable="0">
          <mxGeometry x="0.4885" y="-2" relative="1" as="geometry">
            <mxPoint x="22" as="offset" />
          </mxGeometry>
        </mxCell>
        <mxCell id="0WxTXpoMYCU4AEhBPaFq-6" style="edgeStyle=orthogonalEdgeStyle;rounded=0;orthogonalLoop=1;jettySize=auto;html=1;exitX=0;exitY=0.5;exitDx=0;exitDy=0;entryX=1;entryY=0.5;entryDx=0;entryDy=0;" parent="1" source="0WxTXpoMYCU4AEhBPaFq-8" target="0WxTXpoMYCU4AEhBPaFq-15" edge="1">
          <mxGeometry relative="1" as="geometry" />
        </mxCell>
        <mxCell id="0WxTXpoMYCU4AEhBPaFq-7" value="edge_cnt=half+2/{7&#39;d1101000}" style="edgeLabel;html=1;align=center;verticalAlign=middle;resizable=0;points=[];" parent="0WxTXpoMYCU4AEhBPaFq-6" vertex="1" connectable="0">
          <mxGeometry x="-0.4922" y="-2" relative="1" as="geometry">
            <mxPoint x="16" y="2" as="offset" />
          </mxGeometry>
        </mxCell>
        <mxCell id="0WxTXpoMYCU4AEhBPaFq-8" value="STRT" style="ellipse;whiteSpace=wrap;html=1;" parent="1" vertex="1">
          <mxGeometry x="1816.86" y="1152" width="120" height="80" as="geometry" />
        </mxCell>
        <mxCell id="0WxTXpoMYCU4AEhBPaFq-9" style="edgeStyle=orthogonalEdgeStyle;rounded=0;orthogonalLoop=1;jettySize=auto;html=1;exitX=0.5;exitY=1;exitDx=0;exitDy=0;entryX=1;entryY=0.5;entryDx=0;entryDy=0;" parent="1" source="0WxTXpoMYCU4AEhBPaFq-8" target="0WxTXpoMYCU4AEhBPaFq-8" edge="1">
          <mxGeometry relative="1" as="geometry">
            <Array as="points">
              <mxPoint x="1876.86" y="1252" />
              <mxPoint x="1976.86" y="1252" />
              <mxPoint x="1976.86" y="1192" />
            </Array>
          </mxGeometry>
        </mxCell>
        <mxCell id="0WxTXpoMYCU4AEhBPaFq-10" value="*/{7&#39;d1100000}" style="edgeLabel;html=1;align=center;verticalAlign=middle;resizable=0;points=[];" parent="0WxTXpoMYCU4AEhBPaFq-9" vertex="1" connectable="0">
          <mxGeometry x="-0.4043" relative="1" as="geometry">
            <mxPoint x="5" as="offset" />
          </mxGeometry>
        </mxCell>
        <mxCell id="0WxTXpoMYCU4AEhBPaFq-11" style="edgeStyle=orthogonalEdgeStyle;rounded=0;orthogonalLoop=1;jettySize=auto;html=1;exitX=0;exitY=0.5;exitDx=0;exitDy=0;entryX=0.5;entryY=1;entryDx=0;entryDy=0;" parent="1" source="0WxTXpoMYCU4AEhBPaFq-15" target="0WxTXpoMYCU4AEhBPaFq-22" edge="1">
          <mxGeometry relative="1" as="geometry" />
        </mxCell>
        <mxCell id="0WxTXpoMYCU4AEhBPaFq-12" value="bit_cnt=1&amp;amp;s~strt_glitch/{7&#39;d1100010}" style="edgeLabel;html=1;align=center;verticalAlign=middle;resizable=0;points=[];" parent="0WxTXpoMYCU4AEhBPaFq-11" vertex="1" connectable="0">
          <mxGeometry x="-0.2949" y="-1" relative="1" as="geometry">
            <mxPoint as="offset" />
          </mxGeometry>
        </mxCell>
        <mxCell id="0WxTXpoMYCU4AEhBPaFq-13" style="edgeStyle=orthogonalEdgeStyle;rounded=0;orthogonalLoop=1;jettySize=auto;html=1;exitX=0.5;exitY=0;exitDx=0;exitDy=0;entryX=0;entryY=0.5;entryDx=0;entryDy=0;jumpStyle=arc;" parent="1" source="0WxTXpoMYCU4AEhBPaFq-15" target="0WxTXpoMYCU4AEhBPaFq-3" edge="1">
          <mxGeometry relative="1" as="geometry" />
        </mxCell>
        <mxCell id="0WxTXpoMYCU4AEhBPaFq-14" value="bit_cnt=1&amp;amp;strt_glitch/{7&#39;d000000000}" style="edgeLabel;html=1;align=center;verticalAlign=middle;resizable=0;points=[];" parent="0WxTXpoMYCU4AEhBPaFq-13" vertex="1" connectable="0">
          <mxGeometry x="-0.6258" relative="1" as="geometry">
            <mxPoint as="offset" />
          </mxGeometry>
        </mxCell>
        <mxCell id="0WxTXpoMYCU4AEhBPaFq-15" value="STRT_CHK" style="ellipse;whiteSpace=wrap;html=1;" parent="1" vertex="1">
          <mxGeometry x="1296.86" y="1252" width="120" height="80" as="geometry" />
        </mxCell>
        <mxCell id="0WxTXpoMYCU4AEhBPaFq-16" style="edgeStyle=orthogonalEdgeStyle;rounded=0;orthogonalLoop=1;jettySize=auto;html=1;exitX=0.5;exitY=1;exitDx=0;exitDy=0;entryX=1;entryY=1;entryDx=0;entryDy=0;" parent="1" source="0WxTXpoMYCU4AEhBPaFq-15" target="0WxTXpoMYCU4AEhBPaFq-15" edge="1">
          <mxGeometry relative="1" as="geometry">
            <Array as="points">
              <mxPoint x="1356.86" y="1352" />
              <mxPoint x="1476.86" y="1352" />
              <mxPoint x="1476.86" y="1320" />
            </Array>
          </mxGeometry>
        </mxCell>
        <mxCell id="0WxTXpoMYCU4AEhBPaFq-17" value="*/{7&#39;d1101000}" style="edgeLabel;html=1;align=center;verticalAlign=middle;resizable=0;points=[];" parent="0WxTXpoMYCU4AEhBPaFq-16" vertex="1" connectable="0">
          <mxGeometry x="-0.1996" y="-2" relative="1" as="geometry">
            <mxPoint x="-20" as="offset" />
          </mxGeometry>
        </mxCell>
        <mxCell id="0WxTXpoMYCU4AEhBPaFq-18" style="edgeStyle=orthogonalEdgeStyle;rounded=0;orthogonalLoop=1;jettySize=auto;html=1;exitX=1;exitY=0.5;exitDx=0;exitDy=0;entryX=0;entryY=0.5;entryDx=0;entryDy=0;" parent="1" source="0WxTXpoMYCU4AEhBPaFq-22" target="0WxTXpoMYCU4AEhBPaFq-27" edge="1">
          <mxGeometry relative="1" as="geometry" />
        </mxCell>
        <mxCell id="0WxTXpoMYCU4AEhBPaFq-19" value="bit_cnt=9&amp;amp;PAR_EN/{7&#39;d1100000}" style="edgeLabel;html=1;align=center;verticalAlign=middle;resizable=0;points=[];" parent="0WxTXpoMYCU4AEhBPaFq-18" vertex="1" connectable="0">
          <mxGeometry x="0.0211" y="-3" relative="1" as="geometry">
            <mxPoint x="-8" as="offset" />
          </mxGeometry>
        </mxCell>
        <mxCell id="0WxTXpoMYCU4AEhBPaFq-20" style="edgeStyle=orthogonalEdgeStyle;rounded=0;orthogonalLoop=1;jettySize=auto;html=1;exitX=1;exitY=1;exitDx=0;exitDy=0;entryX=0.5;entryY=1;entryDx=0;entryDy=0;jumpStyle=arc;" parent="1" source="0WxTXpoMYCU4AEhBPaFq-22" target="0WxTXpoMYCU4AEhBPaFq-37" edge="1">
          <mxGeometry relative="1" as="geometry" />
        </mxCell>
        <mxCell id="0WxTXpoMYCU4AEhBPaFq-21" value="bit_cnt=9&amp;amp;~PAR_EN/{7&#39;d1100000}" style="edgeLabel;html=1;align=center;verticalAlign=middle;resizable=0;points=[];" parent="0WxTXpoMYCU4AEhBPaFq-20" vertex="1" connectable="0">
          <mxGeometry x="-0.5689" y="-3" relative="1" as="geometry">
            <mxPoint as="offset" />
          </mxGeometry>
        </mxCell>
        <mxCell id="0WxTXpoMYCU4AEhBPaFq-22" value="DATA" style="ellipse;whiteSpace=wrap;html=1;" parent="1" vertex="1">
          <mxGeometry x="356.86" y="959" width="120" height="80" as="geometry" />
        </mxCell>
        <mxCell id="0WxTXpoMYCU4AEhBPaFq-23" style="edgeStyle=orthogonalEdgeStyle;rounded=0;orthogonalLoop=1;jettySize=auto;html=1;exitX=0;exitY=0.5;exitDx=0;exitDy=0;entryX=0.5;entryY=0;entryDx=0;entryDy=0;" parent="1" source="0WxTXpoMYCU4AEhBPaFq-22" target="0WxTXpoMYCU4AEhBPaFq-22" edge="1">
          <mxGeometry relative="1" as="geometry">
            <Array as="points">
              <mxPoint x="176.86" y="999" />
              <mxPoint x="176.86" y="939" />
              <mxPoint x="416.86" y="939" />
            </Array>
          </mxGeometry>
        </mxCell>
        <mxCell id="0WxTXpoMYCU4AEhBPaFq-24" value="*/{7&#39;d1100010}" style="edgeLabel;html=1;align=center;verticalAlign=middle;resizable=0;points=[];" parent="0WxTXpoMYCU4AEhBPaFq-23" vertex="1" connectable="0">
          <mxGeometry x="0.348" y="3" relative="1" as="geometry">
            <mxPoint x="13" as="offset" />
          </mxGeometry>
        </mxCell>
        <mxCell id="0WxTXpoMYCU4AEhBPaFq-25" style="edgeStyle=orthogonalEdgeStyle;rounded=0;orthogonalLoop=1;jettySize=auto;html=1;exitX=0.5;exitY=1;exitDx=0;exitDy=0;entryX=0.5;entryY=0;entryDx=0;entryDy=0;" parent="1" source="0WxTXpoMYCU4AEhBPaFq-27" target="0WxTXpoMYCU4AEhBPaFq-32" edge="1">
          <mxGeometry relative="1" as="geometry" />
        </mxCell>
        <mxCell id="0WxTXpoMYCU4AEhBPaFq-26" value="edge_cnt=half+2/{7&#39;d1110000}" style="edgeLabel;html=1;align=center;verticalAlign=middle;resizable=0;points=[];" parent="0WxTXpoMYCU4AEhBPaFq-25" vertex="1" connectable="0">
          <mxGeometry x="0.4127" relative="1" as="geometry">
            <mxPoint as="offset" />
          </mxGeometry>
        </mxCell>
        <mxCell id="0WxTXpoMYCU4AEhBPaFq-27" value="PAR" style="ellipse;whiteSpace=wrap;html=1;" parent="1" vertex="1">
          <mxGeometry x="794.86" y="372" width="120" height="80" as="geometry" />
        </mxCell>
        <mxCell id="0WxTXpoMYCU4AEhBPaFq-28" style="edgeStyle=orthogonalEdgeStyle;rounded=0;orthogonalLoop=1;jettySize=auto;html=1;exitX=1;exitY=0.5;exitDx=0;exitDy=0;entryX=0;entryY=0.5;entryDx=0;entryDy=0;" parent="1" source="0WxTXpoMYCU4AEhBPaFq-32" target="0WxTXpoMYCU4AEhBPaFq-37" edge="1">
          <mxGeometry relative="1" as="geometry">
            <Array as="points">
              <mxPoint x="1126.86" y="692" />
              <mxPoint x="1126.86" y="432" />
            </Array>
          </mxGeometry>
        </mxCell>
        <mxCell id="0WxTXpoMYCU4AEhBPaFq-29" value="bit_cnt=10&amp;amp;~parr_err/{7&#39;d1100000}" style="edgeLabel;html=1;align=center;verticalAlign=middle;resizable=0;points=[];" parent="0WxTXpoMYCU4AEhBPaFq-28" vertex="1" connectable="0">
          <mxGeometry x="-0.7364" y="-2" relative="1" as="geometry">
            <mxPoint x="31" y="-2" as="offset" />
          </mxGeometry>
        </mxCell>
        <mxCell id="0WxTXpoMYCU4AEhBPaFq-30" style="edgeStyle=orthogonalEdgeStyle;rounded=0;orthogonalLoop=1;jettySize=auto;html=1;exitX=1;exitY=1;exitDx=0;exitDy=0;entryX=0;entryY=0.5;entryDx=0;entryDy=0;jumpStyle=arc;" parent="1" source="0WxTXpoMYCU4AEhBPaFq-32" target="0WxTXpoMYCU4AEhBPaFq-3" edge="1">
          <mxGeometry relative="1" as="geometry" />
        </mxCell>
        <mxCell id="0WxTXpoMYCU4AEhBPaFq-31" value="bit_cnt=10&amp;amp;parr_err/{7&#39;d0000000}" style="edgeLabel;html=1;align=center;verticalAlign=middle;resizable=0;points=[];" parent="0WxTXpoMYCU4AEhBPaFq-30" vertex="1" connectable="0">
          <mxGeometry x="-0.6851" y="1" relative="1" as="geometry">
            <mxPoint as="offset" />
          </mxGeometry>
        </mxCell>
        <mxCell id="0WxTXpoMYCU4AEhBPaFq-32" value="PAR_CHK" style="ellipse;whiteSpace=wrap;html=1;" parent="1" vertex="1">
          <mxGeometry x="784.86" y="652" width="120" height="80" as="geometry" />
        </mxCell>
        <mxCell id="0WxTXpoMYCU4AEhBPaFq-33" style="edgeStyle=orthogonalEdgeStyle;rounded=0;orthogonalLoop=1;jettySize=auto;html=1;exitX=1;exitY=0.5;exitDx=0;exitDy=0;entryX=0.5;entryY=0;entryDx=0;entryDy=0;" parent="1" source="0WxTXpoMYCU4AEhBPaFq-27" target="0WxTXpoMYCU4AEhBPaFq-27" edge="1">
          <mxGeometry relative="1" as="geometry">
            <Array as="points">
              <mxPoint x="994.86" y="412" />
              <mxPoint x="994.86" y="302" />
              <mxPoint x="854.86" y="302" />
            </Array>
          </mxGeometry>
        </mxCell>
        <mxCell id="0WxTXpoMYCU4AEhBPaFq-34" value="*/{7&#39;d1100000}" style="edgeLabel;html=1;align=center;verticalAlign=middle;resizable=0;points=[];" parent="0WxTXpoMYCU4AEhBPaFq-33" vertex="1" connectable="0">
          <mxGeometry x="0.2137" y="1" relative="1" as="geometry">
            <mxPoint x="-17" as="offset" />
          </mxGeometry>
        </mxCell>
        <mxCell id="0WxTXpoMYCU4AEhBPaFq-35" style="edgeStyle=orthogonalEdgeStyle;rounded=0;orthogonalLoop=1;jettySize=auto;html=1;exitX=1;exitY=1;exitDx=0;exitDy=0;entryX=0.5;entryY=1;entryDx=0;entryDy=0;" parent="1" source="0WxTXpoMYCU4AEhBPaFq-37" target="0WxTXpoMYCU4AEhBPaFq-40" edge="1">
          <mxGeometry relative="1" as="geometry" />
        </mxCell>
        <mxCell id="0WxTXpoMYCU4AEhBPaFq-36" value="edge_cnt=half+2/{7&#39;d1100100}" style="edgeLabel;html=1;align=center;verticalAlign=middle;resizable=0;points=[];" parent="0WxTXpoMYCU4AEhBPaFq-35" vertex="1" connectable="0">
          <mxGeometry x="0.3283" y="1" relative="1" as="geometry">
            <mxPoint x="11" as="offset" />
          </mxGeometry>
        </mxCell>
        <mxCell id="0WxTXpoMYCU4AEhBPaFq-37" value="STP" style="ellipse;whiteSpace=wrap;html=1;" parent="1" vertex="1">
          <mxGeometry x="1256.86" y="392" width="120" height="80" as="geometry" />
        </mxCell>
        <mxCell id="0WxTXpoMYCU4AEhBPaFq-38" style="edgeStyle=orthogonalEdgeStyle;rounded=0;orthogonalLoop=1;jettySize=auto;html=1;exitX=1;exitY=1;exitDx=0;exitDy=0;entryX=0;entryY=0;entryDx=0;entryDy=0;" parent="1" source="0WxTXpoMYCU4AEhBPaFq-40" target="0WxTXpoMYCU4AEhBPaFq-3" edge="1">
          <mxGeometry relative="1" as="geometry">
            <Array as="points">
              <mxPoint x="1748.86" y="572" />
              <mxPoint x="1446.86" y="572" />
              <mxPoint x="1446.86" y="934" />
            </Array>
          </mxGeometry>
        </mxCell>
        <mxCell id="0WxTXpoMYCU4AEhBPaFq-39" value="bit_cnt=10|11&amp;amp;~stp_err/{7&#39;d0000001}" style="edgeLabel;html=1;align=center;verticalAlign=middle;resizable=0;points=[];" parent="0WxTXpoMYCU4AEhBPaFq-38" vertex="1" connectable="0">
          <mxGeometry x="-0.2531" relative="1" as="geometry">
            <mxPoint x="49" as="offset" />
          </mxGeometry>
        </mxCell>
        <mxCell id="0WxTXpoMYCU4AEhBPaFq-40" value="STP_CHK" style="ellipse;whiteSpace=wrap;html=1;" parent="1" vertex="1">
          <mxGeometry x="1646.86" y="382" width="120" height="80" as="geometry" />
        </mxCell>
        <mxCell id="0WxTXpoMYCU4AEhBPaFq-41" style="edgeStyle=orthogonalEdgeStyle;rounded=0;orthogonalLoop=1;jettySize=auto;html=1;exitX=1;exitY=1;exitDx=0;exitDy=0;entryX=0.5;entryY=0;entryDx=0;entryDy=0;" parent="1" source="0WxTXpoMYCU4AEhBPaFq-37" target="0WxTXpoMYCU4AEhBPaFq-37" edge="1">
          <mxGeometry relative="1" as="geometry">
            <Array as="points">
              <mxPoint x="1396.86" y="460" />
              <mxPoint x="1396.86" y="322" />
              <mxPoint x="1316.86" y="322" />
            </Array>
          </mxGeometry>
        </mxCell>
        <mxCell id="0WxTXpoMYCU4AEhBPaFq-42" value="*/{7&#39;d1100000}" style="edgeLabel;html=1;align=center;verticalAlign=middle;resizable=0;points=[];" parent="0WxTXpoMYCU4AEhBPaFq-41" vertex="1" connectable="0">
          <mxGeometry x="0.3567" relative="1" as="geometry">
            <mxPoint x="5" as="offset" />
          </mxGeometry>
        </mxCell>
        <mxCell id="0WxTXpoMYCU4AEhBPaFq-43" style="edgeStyle=orthogonalEdgeStyle;rounded=0;orthogonalLoop=1;jettySize=auto;html=1;exitX=0.5;exitY=1;exitDx=0;exitDy=0;entryX=0;entryY=0.5;entryDx=0;entryDy=0;" parent="1" source="0WxTXpoMYCU4AEhBPaFq-32" target="0WxTXpoMYCU4AEhBPaFq-32" edge="1">
          <mxGeometry relative="1" as="geometry">
            <Array as="points">
              <mxPoint x="844.86" y="752" />
              <mxPoint x="736.86" y="752" />
              <mxPoint x="736.86" y="692" />
            </Array>
          </mxGeometry>
        </mxCell>
        <mxCell id="0WxTXpoMYCU4AEhBPaFq-44" value="*/{7&#39;d1110000}" style="edgeLabel;html=1;align=center;verticalAlign=middle;resizable=0;points=[];" parent="0WxTXpoMYCU4AEhBPaFq-43" vertex="1" connectable="0">
          <mxGeometry x="-0.2206" relative="1" as="geometry">
            <mxPoint x="12" as="offset" />
          </mxGeometry>
        </mxCell>
        <mxCell id="0WxTXpoMYCU4AEhBPaFq-45" style="edgeStyle=orthogonalEdgeStyle;rounded=0;orthogonalLoop=1;jettySize=auto;html=1;exitX=1;exitY=0.5;exitDx=0;exitDy=0;entryX=0.5;entryY=0;entryDx=0;entryDy=0;" parent="1" source="0WxTXpoMYCU4AEhBPaFq-40" target="0WxTXpoMYCU4AEhBPaFq-40" edge="1">
          <mxGeometry relative="1" as="geometry">
            <Array as="points">
              <mxPoint x="1826.86" y="422" />
              <mxPoint x="1826.86" y="302" />
              <mxPoint x="1706.86" y="302" />
            </Array>
          </mxGeometry>
        </mxCell>
        <mxCell id="0WxTXpoMYCU4AEhBPaFq-46" value="*/{7&#39;d1100100}" style="edgeLabel;html=1;align=center;verticalAlign=middle;resizable=0;points=[];" parent="0WxTXpoMYCU4AEhBPaFq-45" vertex="1" connectable="0">
          <mxGeometry x="0.2973" y="-2" relative="1" as="geometry">
            <mxPoint x="6" as="offset" />
          </mxGeometry>
        </mxCell>
        <mxCell id="0WxTXpoMYCU4AEhBPaFq-47" style="edgeStyle=orthogonalEdgeStyle;rounded=0;orthogonalLoop=1;jettySize=auto;html=1;exitX=1;exitY=1;exitDx=0;exitDy=0;entryX=0.992;entryY=0.413;entryDx=0;entryDy=0;entryPerimeter=0;jumpStyle=arc;" parent="1" source="0WxTXpoMYCU4AEhBPaFq-40" target="0WxTXpoMYCU4AEhBPaFq-3" edge="1">
          <mxGeometry relative="1" as="geometry">
            <Array as="points">
              <mxPoint x="1876.86" y="450" />
              <mxPoint x="1876.86" y="955" />
            </Array>
          </mxGeometry>
        </mxCell>
        <mxCell id="0WxTXpoMYCU4AEhBPaFq-48" value="bit_cnt=10|11&amp;amp;stp_err/{7&#39;d0000000}" style="edgeLabel;html=1;align=center;verticalAlign=middle;resizable=0;points=[];" parent="0WxTXpoMYCU4AEhBPaFq-47" vertex="1" connectable="0">
          <mxGeometry x="-0.1887" relative="1" as="geometry">
            <mxPoint as="offset" />
          </mxGeometry>
        </mxCell>
      </root>
    </mxGraphModel>
  </diagram>
</mxfile>
